<svg xmlns="http://www.w3.org/2000/svg" width="128" height="128"><path d="m110.43 84.438-3.389-3.39a165.5 165.5 0 0 0 1-19.626 171.459 171.459 0 0 0-.888-18.762l3.282-3.283a6.186 6.186 0 0 0 1.781-4.891 6.209 6.209 0 0 0-10.593-4.892l-3.383 3.378c-7.266-1.113-20.225-1.8-34.24-1.8s-26.974.684-34.24 1.8l-3.378-3.378a6.209 6.209 0 0 0-10.593 4.892 6.186 6.186 0 0 0 1.781 4.891l3.282 3.283a171.459 171.459 0 0 0-.888 18.762 165.5 165.5 0 0 0 1 19.626l-3.389 3.39a6.231 6.231 0 0 0 8.812 8.812l3.378-3.377c7.267 1.112 20.226 1.8 34.24 1.8s26.973-.684 34.24-1.8l3.378 3.377a6.231 6.231 0 0 0 8.812-8.812zm-2.475 6.337a2.809 2.809 0 0 1-3.863 0l-4.009-4.009a1.752 1.752 0 0 0-1.238-.513 1.8 1.8 0 0 0-.292.024C91.67 87.444 78.43 88.169 64 88.169s-27.67-.725-34.553-1.892a1.755 1.755 0 0 0-1.53.489l-4.009 4.009a2.812 2.812 0 0 1-3.864 0 2.745 2.745 0 0 1 0-3.862l4.006-4.006a1.75 1.75 0 0 0 .494-1.493 153.7 153.7 0 0 1-1.08-19.992 160.6 160.6 0 0 1 .965-19.167 1.746 1.746 0 0 0-.5-1.465l-3.885-3.89a2.719 2.719 0 0 1-.758-2.229 1.688 1.688 0 0 0 0-.376 2.71 2.71 0 0 1 4.622-2.229l4.009 4.01a1.759 1.759 0 0 0 1.53.488C36.329 35.4 49.569 34.675 64 34.675s27.671.725 34.553 1.892a1.753 1.753 0 0 0 1.53-.488l4.009-4.01a2.71 2.71 0 0 1 4.622 2.229 1.688 1.688 0 0 0 0 .376 2.719 2.719 0 0 1-.758 2.229l-3.887 3.887a1.746 1.746 0 0 0-.5 1.465 160.6 160.6 0 0 1 .965 19.167 153.7 153.7 0 0 1-1.08 19.992 1.75 1.75 0 0 0 .494 1.493l4.006 4.006a2.744 2.744 0 0 1 0 3.862z" fill="#ffffff"/><path d="M31.578 41.287c-4.323 0-4.968 12.9-4.968 20.6s.645 20.6 4.968 20.6 4.967-12.9 4.967-20.6-.645-20.6-4.967-20.6zm0 36.209c-.7-2.581-1.468-7.854-1.468-15.614s.764-13.033 1.468-15.614c.7 2.581 1.467 7.855 1.467 15.614s-.763 13.033-1.467 15.618z" fill="#ffffff"/></svg>